<svg width="29" height="28" viewBox="0 0 29 28" fill="none" xmlns="http://www.w3.org/2000/svg">
<path d="M25.4566 7.65317C25.0968 6.82375 24.5779 6.07213 23.9291 5.4404C23.2799 4.80678 22.5143 4.30325 21.6742 3.9572C20.803 3.59693 19.8687 3.41253 18.9253 3.41469C17.6019 3.41469 16.3107 3.77547 15.1886 4.45694C14.9201 4.61996 14.6651 4.79901 14.4235 4.9941C14.1819 4.79901 13.9269 4.61996 13.6584 4.45694C12.5363 3.77547 11.2451 3.41469 9.92167 3.41469C8.96869 3.41469 8.04523 3.59642 7.17279 3.9572C6.32987 4.30461 5.57017 4.80436 4.91785 5.4404C4.2682 6.07142 3.74925 6.82321 3.3904 7.65317C3.01726 8.51637 2.82666 9.43301 2.82666 10.3764C2.82666 11.2663 3.0092 12.1936 3.3716 13.137C3.67495 13.9254 4.10983 14.7431 4.66551 15.5689C5.54601 16.8757 6.7567 18.2387 8.25999 19.6203C10.7512 21.9106 13.2182 23.4927 13.3229 23.5568L13.9591 23.963C14.241 24.1421 14.6034 24.1421 14.8852 23.963L15.5214 23.5568C15.6261 23.49 18.0905 21.9106 20.5843 19.6203C22.0876 18.2387 23.2983 16.8757 24.1788 15.5689C24.7345 14.7431 25.172 13.9254 25.4727 13.137C25.8351 12.1936 26.0176 11.2663 26.0176 10.3764C26.0203 9.43301 25.8297 8.51637 25.4566 7.65317Z" fill="#085BFD"/>
</svg>
