<svg width="36" height="36" viewBox="0 0 36 36" fill="none" xmlns="http://www.w3.org/2000/svg">
<path d="M18 36C27.3888 36 35 28.3888 35 19C35 9.61116 27.3888 2 18 2C8.61116 2 1 9.61116 1 19C1 28.3888 8.61116 36 18 36Z" fill="#F4900C"/>
<path d="M18 34C27.3888 34 35 26.3888 35 17C35 7.61116 27.3888 0 18 0C8.61116 0 1 7.61116 1 17C1 26.3888 8.61116 34 18 34Z" fill="#FFCC4D"/>
<path d="M18 32C25.732 32 32 25.732 32 18C32 10.268 25.732 4 18 4C10.268 4 4 10.268 4 18C4 25.732 10.268 32 18 32Z" fill="#FFE8B6"/>
<path d="M18 31C25.732 31 32 24.732 32 17C32 9.26801 25.732 3 18 3C10.268 3 4 9.26801 4 17C4 24.732 10.268 31 18 31Z" fill="#FFAC33"/>
<path d="M9.54297 10.8559C9.54297 10.3109 10.078 10.0929 10.078 10.0929L17.956 6.39294L25.909 10.0929C25.909 10.0929 26.457 10.2149 26.457 10.8599V11.5009H9.54297V10.8559Z" fill="#FFE8B6"/>
<path d="M25.9288 12.8361C25.9288 12.2521 25.4238 11.7791 24.8018 11.7791H11.1288C10.5058 11.7791 10.0718 12.2521 10.0718 12.8361C10.0718 13.2331 10.2758 13.5751 10.6008 13.7561V14.4221H12.7148V13.8931H14.8288V14.4221H16.9428V13.8931H19.0568V14.4221H21.1708V13.8931H23.2848V14.4221H25.3998V13.7291C25.7168 13.5411 25.9288 13.2121 25.9288 12.8361ZM27.5138 24.0001C27.5138 24.2104 27.4303 24.4121 27.2816 24.5608C27.1329 24.7095 26.9312 24.7931 26.7208 24.7931H9.27884C9.06852 24.7931 8.86682 24.7095 8.7181 24.5608C8.56939 24.4121 8.48584 24.2104 8.48584 24.0001C8.48584 23.7897 8.56939 23.588 8.7181 23.4393C8.86682 23.2906 9.06852 23.2071 9.27884 23.2071H26.7218C27.1588 23.2071 27.5138 23.5621 27.5138 24.0001V24.0001Z" fill="#F4900C"/>
<path d="M26.4572 12.2C26.4572 12.3403 26.4015 12.4749 26.3022 12.5741C26.203 12.6733 26.0685 12.729 25.9282 12.729H10.0712C9.93651 12.7207 9.81006 12.6614 9.71763 12.5631C9.62519 12.4648 9.57373 12.335 9.57373 12.2C9.57373 12.0651 9.62519 11.9352 9.71763 11.8369C9.81006 11.7386 9.93651 11.6793 10.0712 11.671L25.9282 11.674C25.9975 11.6738 26.0661 11.6872 26.1302 11.7135C26.1943 11.7398 26.2526 11.7785 26.3018 11.8273C26.3509 11.8762 26.3899 11.9342 26.4166 11.9982C26.4433 12.0621 26.4571 12.1307 26.4572 12.2V12.2ZM12.1862 12.814H23.8152V14H12.1862V12.814Z" fill="#F4900C"/>
<path d="M12.7141 20.8291C12.7141 21.4131 12.3981 21.8861 12.0091 21.8861H11.3041C10.9151 21.8861 10.5991 21.4131 10.5991 20.8291V12.8151C10.5991 12.2311 10.9151 11.7581 11.3041 11.7581H12.0091C12.3981 11.7581 12.7141 12.2311 12.7141 12.8151V20.8291ZM25.4001 20.8291C25.4001 21.4131 25.0851 21.8861 24.6951 21.8861H23.9901C23.6011 21.8861 23.2851 21.4131 23.2851 20.8291V12.8151C23.2851 12.2311 23.6001 11.7581 23.9901 11.7581H24.6951C25.0841 11.7581 25.4001 12.2311 25.4001 12.8151V20.8291ZM16.9431 20.8291C16.9431 21.4131 16.6271 21.8861 16.2381 21.8861H15.5331C15.1441 21.8861 14.8281 21.4131 14.8281 20.8291V12.8151C14.8281 12.2311 15.1441 11.7581 15.5331 11.7581H16.2381C16.6271 11.7581 16.9431 12.2311 16.9431 12.8151V20.8291ZM21.1711 20.8291C21.1711 21.4131 20.8551 21.8861 20.4661 21.8861H19.7621C19.3731 21.8861 19.0571 21.4131 19.0571 20.8291V12.8151C19.0571 12.2311 19.3731 11.7581 19.7621 11.7581H20.4661C20.8551 11.7581 21.1711 12.2311 21.1711 12.8151V20.8291Z" fill="#FFD983"/>
<path d="M25.9288 21.357C25.9288 21.941 25.4558 22.414 24.8718 22.414H11.1288C10.8484 22.414 10.5796 22.3027 10.3814 22.1045C10.1831 21.9062 10.0718 21.6374 10.0718 21.357C10.0718 21.0767 10.1831 20.8079 10.3814 20.6096C10.5796 20.4114 10.8484 20.3 11.1288 20.3H24.8718C25.4548 20.3 25.9288 20.773 25.9288 21.357V21.357Z" fill="#FFCC4D"/>
<path d="M26.9862 22.4141C26.9862 22.9981 26.5132 23.4711 25.9292 23.4711H10.0712C9.79083 23.4711 9.52197 23.3597 9.32375 23.1615C9.12552 22.9632 9.01416 22.6944 9.01416 22.4141C9.01416 22.1337 9.12552 21.8649 9.32375 21.6666C9.52197 21.4684 9.79083 21.3571 10.0712 21.3571H25.9282C26.5122 21.3571 26.9862 21.8301 26.9862 22.4141V22.4141Z" fill="#FFD983"/>
<path d="M27.5138 23.2069C27.5138 23.4173 27.4303 23.619 27.2816 23.7677C27.1329 23.9164 26.9312 23.9999 26.7208 23.9999H9.27884C9.1747 23.9999 9.07158 23.9794 8.97537 23.9396C8.87916 23.8997 8.79174 23.8413 8.7181 23.7677C8.64447 23.694 8.58606 23.6066 8.5462 23.5104C8.50635 23.4142 8.48584 23.3111 8.48584 23.2069C8.48584 23.1028 8.50635 22.9997 8.5462 22.9035C8.58606 22.8073 8.64447 22.7198 8.7181 22.6462C8.79174 22.5726 8.87916 22.5142 8.97537 22.4743C9.07158 22.4345 9.1747 22.4139 9.27884 22.4139H26.7218C27.1588 22.4139 27.5138 22.7689 27.5138 23.2069V23.2069Z" fill="#FFD983"/>
<path d="M25.9288 12.286C25.9288 11.702 25.4238 11.229 24.8018 11.229H11.1288C10.5058 11.229 10.0718 11.702 10.0718 12.286C10.0718 12.683 10.2758 13.025 10.6008 13.206V13.872H12.7148V13.343H14.8288V13.872H16.9428V13.343H19.0568V13.872H21.1708V13.343H23.2848V13.872H25.3998V13.179C25.7168 12.991 25.9288 12.662 25.9288 12.286Z" fill="#FFCC4D"/>
<path d="M9.54297 11.463C9.54297 10.918 10.078 10.7 10.078 10.7L17.956 7L25.909 10.7C25.909 10.7 26.457 10.822 26.457 11.467V11.758H9.54297V11.463Z" fill="#FFD983"/>
<path d="M18 8.34302C18 8.34302 12.545 10.914 12.001 11.146C11.456 11.377 11.638 11.757 12.002 11.757H23.972C24.534 11.757 24.401 11.328 23.955 11.096C23.509 10.865 18 8.34302 18 8.34302Z" fill="#FFAC33"/>
<path d="M26.4572 11.757C26.4572 11.8973 26.4015 12.0319 26.3022 12.1311C26.203 12.2303 26.0685 12.286 25.9282 12.286H10.0712C9.93651 12.2777 9.81006 12.2184 9.71763 12.1201C9.62519 12.0218 9.57373 11.892 9.57373 11.757C9.57373 11.6221 9.62519 11.4922 9.71763 11.3939C9.81006 11.2957 9.93651 11.2363 10.0712 11.228L25.9282 11.231C25.9975 11.2308 26.0661 11.2442 26.1302 11.2705C26.1943 11.2968 26.2526 11.3355 26.3018 11.3843C26.3509 11.4332 26.3899 11.4912 26.4166 11.5552C26.4433 11.6192 26.4571 11.6877 26.4572 11.757V11.757Z" fill="#FFD983"/>
</svg>
